<svg width="0" height="0" class="hidden">
  <symbol fill="none" xmlns="http://www.w3.org/2000/svg" viewBox="0 0 20 20" id="icon-non-refundeble">
    <path fill-rule="evenodd" clip-rule="evenodd" d="M4.62478 4.63241L2.18383 5.00007L2 3.7796L5.66142 3.22811L6.21291 6.88952L4.99244 7.07335L4.62478 4.63241Z" fill="#707276"></path>
    <path fill-rule="evenodd" clip-rule="evenodd" d="M5.50026 3.53113C3.4548 4.96004 2.11682 7.33195 2.11682 10.0164C2.11682 14.3824 5.6562 17.9218 10.0223 17.9218C14.3883 17.9218 17.9277 14.3824 17.9277 10.0164C17.9277 5.66294 14.4087 2.13141 10.0601 2.11102L10.0351 3.11095C13.8429 3.11786 16.9277 6.20687 16.9277 10.0164C16.9277 13.8301 13.836 16.9218 10.0223 16.9218C6.20849 16.9218 3.11682 13.8301 3.11682 10.0164C3.11682 7.82668 4.136 5.87504 5.72586 4.60992L5.50026 4.61573V3.99861V3.53113Z" fill="#707276"></path>
    <path d="M1.6492 16.7664L1.29332 17.1176L1.64454 17.4735L2.5115 18.3519L2.86272 18.7078L3.21859 18.3566L18.2986 3.47416L18.6545 3.12295L18.3033 2.76707L17.4363 1.8886L17.0851 1.53272L16.7292 1.88393L1.6492 16.7664Z" fill="#707276" stroke="white"></path>
  </symbol>
</svg>